<?xml version="1.0"?>
<svg version="1.1" xmlns="http://www.w3.org/2000/svg" width="400" height="200" style="border: dashed 2px #aaa"><path fill="#5393fe" d="M15.357421875,104.88671875q0-0.205078125,0.140625-0.2607421875t0.3046875-0.0556640625q0.287109375,0,0.486328125,0.2578125t0.3779296875,0.5654296875t0.3544921875,0.5654296875t0.416015625,0.2578125q0.181640625,0,0.3310546875-0.0908203125t0.2578125-0.228515625t0.1669921875-0.310546875t0.05859375-0.3427734375q0-0.4453125-0.1787109375-0.919921875t-0.45703125-0.978515625t-0.5888671875-1.03125t-0.5859375-1.072265625t-0.45703125-1.1103515625t-0.181640625-1.1396484375q0-0.861328125,0.515625-1.3359375t1.359375-0.474609375q0.287109375,0,0.580078125,0.08203125t0.5390625,0.24609375t0.4013671875,0.404296875t0.1552734375,0.5625q0,0.10546875-0.1552734375,0.1376953125t-0.2255859375,0.0322265625q-0.10546875,0-0.228515625-0.0263671875t-0.158203125-0.1435546875t-0.099609375-0.26953125t-0.1611328125-0.2841796875t-0.228515625-0.228515625t-0.2900390625-0.0966796875q-0.263671875,0-0.4482421875,0.1083984375t-0.298828125,0.2900390625t-0.169921875,0.4072265625t-0.0556640625,0.4658203125q0,0.5625,0.193359375,1.1337890625t0.48046875,1.13671875t0.6240234375,1.1162109375t0.6240234375,1.072265625t0.48046875,1.01953125t0.193359375,0.943359375q0,0.3984375-0.1875,0.673828125t-0.474609375,0.4482421875t-0.6357421875,0.251953125t-0.6826171875,0.0791015625q-0.357421875,0-0.732421875-0.1435546875t-0.673828125-0.3955078125t-0.4921875-0.5888671875t-0.193359375-0.7294921875z M20.64064453125,105.05078125q-0.005859375-0.17578125-0.005859375-0.3515625q0-0.55078125,0.05859375-1.107421875q0.0703125-0.73828125,0.09375-1.453125q0.0234375-0.837890625,0.0703125-1.740234375q0.029296875-0.4921875,0.029296875-0.97265625q0-0.392578125-0.017578125-0.779296875q0.05859375-0.134765625,0.1552734375-0.181640625t0.2431640625-0.046875q0.0703125,0,0.1494140625,0.01171875t0.1376953125,0.05859375q0.08203125,0.01171875,0.2021484375,0.0234375t0.1845703125,0.0703125q0.0234375,0.03515625,0.1201171875,0.240234375t0.228515625,0.498046875t0.275390625,0.6357421875t0.275390625,0.650390625t0.228515625,0.5419921875t0.1201171875,0.29296875q0.55078125-0.99609375,1.078125-2.0478515625t1.154296875-1.9833984375q0.05859375-0.08203125,0.2021484375-0.1201171875t0.2373046875-0.0380859375q0.251953125,0,0.3662109375,0.1201171875t0.1494140625,0.3076171875q0.0234375,0.1171875,0.029296875,0.251953125q0.005859375,0.0703125-0.005859375,0.146484375q-0.0234375,0.216796875-0.0234375,0.41015625q0,1.365234375-0.09375,2.7099609375t-0.169921875,2.7158203125q-0.01171875,0.28125-0.01171875,0.5859375t0.01171875,0.6328125q0.005859375,0.1171875,0.005859375,0.228515625q0,0.515625-0.087890625,0.9609375q-0.08203125,0.134765625-0.26953125,0.169921875t-0.31640625,0.03515625q-0.275390625,0-0.52734375-0.12890625l-0.064453125-0.076171875l-0.0234375-0.09375t-0.01171875-0.09375q0-0.849609375,0.0615234375-1.7109375t0.1376953125-1.7197265625t0.1611328125-1.7138671875t0.1435546875-1.7109375q-0.345703125,0.57421875-0.6708984375,1.1689453125t-0.6123046875,1.2099609375q-0.10546875,0.240234375-0.2021484375,0.515625t-0.2314453125,0.4921875q-0.0703125,0.10546875-0.2373046875,0.12890625t-0.2900390625,0.0234375q-0.1171875,0-0.2431640625-0.041015625t-0.1728515625-0.17578125q-0.216796875-0.662109375-0.462890625-1.294921875t-0.498046875-1.283203125q0,0.43359375,0.017578125,1.1220703125t0.017578125,1.4267578125t-0.0234375,1.412109375t-0.111328125,1.06640625q-0.0234375,0.146484375-0.1904296875,0.181640625t-0.2900390625,0.03515625q-0.09375,0-0.1787109375-0.01171875t-0.1669921875-0.046875z"/><path fill="#" d=""/></svg>
